<?xml version="1.0" standalone="no"?>
<!DOCTYPE svg PUBLIC "-//W3C//DTD SVG 20010904//EN"
 "http://www.w3.org/TR/2001/REC-SVG-20010904/DTD/svg10.dtd">
<svg version="1.0" xmlns="http://www.w3.org/2000/svg"
 width="1292.000000pt" height="1292.000000pt" viewBox="0 0 1292.000000 1292.000000"
 preserveAspectRatio="xMidYMid meet">
<metadata>
Created by potrace 1.11, written by Peter Selinger 2001-2013
</metadata>
<g transform="translate(0.000000,1292.000000) scale(0.100000,-0.100000)"
fill="#000000" stroke="none">
<path d="M5550 12895 c0 -14 -4 -25 -9 -25 -5 0 -12 -10 -16 -22 -4 -13 -9
-27 -10 -33 -2 -5 -6 -21 -9 -34 -3 -12 -9 -28 -14 -35 -4 -6 -8 -18 -7 -26 0
-8 -5 -21 -12 -28 -7 -8 -11 -18 -8 -22 3 -5 1 -17 -4 -27 -9 -17 -21 -48 -26
-65 -2 -5 -3 -9 -4 -10 -2 -2 -5 -14 -7 -28 -2 -13 -9 -27 -16 -31 -6 -4 -8
-11 -4 -17 3 -5 0 -15 -8 -21 -8 -7 -13 -20 -11 -29 1 -9 -2 -22 -7 -28 -5 -7
-8 -16 -6 -20 1 -5 -4 -20 -11 -32 -7 -13 -10 -26 -7 -29 3 -3 -1 -11 -9 -17
-8 -6 -16 -22 -19 -36 -2 -14 -13 -46 -25 -72 -11 -27 -18 -48 -16 -48 6 0
-34 -111 -45 -125 -4 -5 -6 -18 -5 -27 2 -10 0 -18 -5 -18 -7 0 -11 -12 -25
-62 -2 -5 -4 -9 -5 -10 -1 -2 -4 -12 -5 -23 -2 -11 -11 -38 -21 -60 -19 -43
-23 -56 -29 -93 -2 -13 -9 -30 -16 -38 -6 -8 -9 -17 -6 -21 4 -3 1 -13 -5 -21
-7 -8 -13 -19 -14 -26 -1 -6 -6 -22 -12 -36 -5 -14 -11 -29 -12 -35 -1 -5 -7
-19 -13 -30 -12 -22 -18 -40 -21 -70 -1 -11 -8 -30 -15 -42 -6 -13 -9 -23 -5
-23 4 0 -1 -8 -10 -19 -9 -10 -16 -22 -15 -27 1 -5 0 -16 -3 -24 -15 -43 -29
-91 -33 -109 -2 -10 -11 -33 -19 -50 -9 -17 -17 -34 -17 -38 0 -5 -7 -18 -15
-31 -8 -12 -12 -26 -10 -31 3 -5 -3 -26 -13 -47 -11 -21 -17 -42 -14 -47 3 -4
-29 15 -70 43 -42 27 -80 50 -86 50 -6 0 -11 4 -11 8 0 10 -155 112 -170 112
-5 0 -10 4 -10 8 0 8 -89 76 -100 77 -3 0 -21 12 -41 28 -20 15 -40 27 -46 27
-5 0 -20 11 -33 25 -13 14 -26 23 -28 20 -3 -2 -22 9 -42 25 -21 17 -42 30
-47 30 -5 0 -20 11 -33 25 -12 13 -25 23 -29 22 -3 -1 -22 10 -42 26 -20 15
-39 27 -43 27 -8 0 -78 50 -87 63 -3 4 -23 17 -45 28 -21 12 -50 32 -65 45
-14 13 -30 24 -36 24 -6 0 -16 7 -23 15 -7 9 -15 13 -18 11 -2 -3 -23 10 -46
28 -22 19 -51 37 -63 40 -13 4 -23 11 -23 15 0 8 -99 74 -112 75 -4 1 -15 11
-24 24 -9 13 -22 21 -30 18 -7 -3 -18 4 -24 14 -6 11 -19 20 -29 20 -11 0 -22
7 -25 16 -4 9 -9 14 -12 11 -4 -3 -16 3 -28 14 -11 11 -41 33 -66 49 -25 16
-52 35 -60 42 -19 17 -96 67 -140 91 -19 11 -37 23 -40 27 -3 4 -39 29 -80 56
-41 26 -80 55 -86 63 -10 13 -13 12 -22 -5 -12 -23 -11 -76 2 -86 5 -3 9 -30
9 -60 -1 -29 2 -57 5 -63 4 -5 7 -26 7 -45 0 -19 4 -41 9 -49 5 -7 10 -32 11
-55 1 -22 5 -49 9 -58 4 -9 8 -34 9 -55 1 -21 5 -42 7 -48 3 -5 5 -30 5 -55
-1 -25 3 -47 7 -50 4 -4 8 -27 9 -53 1 -26 6 -47 11 -47 4 0 8 -22 8 -50 0
-27 4 -50 8 -50 4 0 7 -19 7 -42 -1 -24 2 -48 6 -53 7 -10 16 -74 23 -160 1
-22 6 -47 9 -55 4 -8 9 -35 11 -60 2 -24 8 -46 13 -47 5 -2 7 -19 5 -38 -2
-19 -1 -43 4 -52 4 -10 8 -34 8 -53 1 -19 6 -44 12 -55 6 -11 10 -35 9 -53 -1
-18 4 -37 11 -42 6 -6 10 -25 7 -43 -2 -17 1 -41 6 -52 5 -11 14 -54 20 -95 6
-41 14 -88 18 -104 l6 -30 -24 23 c-13 13 -40 35 -59 49 -19 15 -39 33 -43 39
-4 7 -16 13 -26 13 -11 0 -21 6 -24 14 -3 8 -40 38 -81 67 -42 29 -76 56 -76
61 0 4 -6 8 -13 8 -8 0 -22 9 -32 20 -10 11 -23 20 -29 20 -6 0 -23 10 -38 23
-62 52 -68 56 -68 50 0 -3 -11 4 -25 17 -14 13 -25 20 -25 16 0 -4 -10 2 -22
14 -12 11 -27 20 -32 20 -6 0 -17 9 -24 20 -7 11 -21 20 -31 20 -10 0 -30 12
-45 26 -14 15 -26 24 -26 21 0 -8 -86 39 -127 69 -17 13 -35 24 -40 24 -5 0
-20 8 -33 17 -14 10 -31 18 -38 20 -8 1 -20 10 -28 20 -7 10 -14 14 -14 9 0
-5 -8 -3 -17 5 -10 8 -37 24 -60 35 -24 10 -43 22 -43 27 0 4 -8 7 -18 7 -10
0 -28 7 -40 16 -12 8 -22 12 -22 9 0 -4 -15 4 -32 17 -18 13 -34 22 -36 20 -1
-1 -30 12 -65 30 -34 18 -64 33 -67 33 -3 1 -13 5 -23 10 -21 9 -49 -11 -32
-23 6 -4 23 -26 38 -49 16 -23 35 -44 43 -47 8 -3 14 -11 14 -19 0 -7 11 -24
25 -37 13 -12 23 -25 22 -29 -2 -5 17 -33 66 -96 50 -65 77 -105 77 -113 0 -5
7 -15 15 -22 8 -7 13 -16 10 -20 -3 -4 2 -13 10 -20 8 -7 15 -19 15 -26 0 -8
4 -14 9 -14 5 0 11 -8 15 -17 3 -10 23 -45 44 -79 22 -34 54 -92 73 -130 19
-38 36 -71 39 -74 6 -6 36 -60 62 -112 10 -21 22 -38 26 -38 4 0 8 -10 8 -23
2 -26 39 -110 68 -152 12 -16 20 -31 19 -32 -2 -3 19 -57 53 -131 13 -29 24
-55 24 -58 0 -6 56 -131 70 -156 6 -10 10 -26 10 -36 0 -10 7 -27 15 -38 8
-10 15 -27 15 -37 0 -9 4 -25 9 -35 14 -25 24 -56 23 -64 -1 -5 3 -8 8 -8 6 0
10 -11 10 -24 0 -14 4 -27 9 -30 5 -3 11 -16 14 -28 3 -13 17 -54 31 -93 14
-38 26 -76 26 -83 0 -18 22 -38 40 -37 22 2 51 15 86 41 17 13 43 26 58 30 14
3 30 14 35 23 5 9 12 14 16 12 6 -3 67 19 75 28 10 12 72 41 86 41 8 0 14 4
14 8 0 4 16 14 35 21 19 7 35 16 35 21 0 5 7 7 15 4 8 -4 15 -2 15 3 0 5 17
15 38 22 20 7 73 30 117 51 44 21 89 42 100 46 11 4 22 8 25 9 3 2 15 6 28 10
12 4 22 11 22 16 0 5 3 8 8 7 15 -4 72 14 72 23 0 5 9 9 19 9 11 0 32 6 48 14
41 20 93 42 133 57 19 7 39 16 44 21 6 4 20 8 33 8 13 0 23 5 23 11 0 5 4 8 9
5 10 -7 71 16 71 26 0 4 11 8 24 8 14 0 27 4 31 10 3 5 12 7 19 4 8 -3 17 -1
21 5 3 6 17 11 31 11 13 0 24 5 24 10 0 6 3 9 8 8 16 -3 82 15 82 23 0 5 11 9
24 9 14 0 28 5 31 10 4 6 11 8 16 4 5 -3 15 -1 22 4 7 6 24 13 37 15 14 2 32
6 40 9 32 12 166 50 190 55 14 2 32 7 40 10 8 4 17 7 20 8 11 4 69 17 135 32
39 9 78 19 87 24 10 5 27 9 39 9 11 0 46 7 77 16 32 10 68 18 82 19 14 1 32 4
40 8 8 3 29 8 45 11 17 4 39 8 50 11 11 2 47 9 80 14 33 6 87 15 120 21 33 5
74 12 90 14 17 3 44 8 60 12 17 4 45 7 63 7 17 0 32 3 32 7 0 4 33 10 73 13
39 3 90 8 112 11 48 7 234 25 325 32 36 2 81 7 100 11 19 3 88 6 153 5 64 0
117 4 117 9 0 12 727 12 734 0 3 -5 63 -9 133 -9 71 1 135 -2 143 -5 8 -4 49
-9 90 -12 41 -3 125 -10 185 -16 61 -6 128 -12 150 -14 22 -2 47 -6 55 -8 14
-5 66 -12 160 -21 19 -2 51 -7 70 -11 51 -12 78 -16 143 -22 31 -3 57 -10 57
-15 0 -5 12 -8 28 -7 15 1 46 -3 70 -10 23 -6 47 -9 52 -6 6 3 10 1 10 -4 0
-6 17 -11 38 -11 21 0 42 -3 46 -7 4 -4 20 -8 35 -9 15 0 49 -8 76 -16 28 -9
86 -23 130 -33 44 -10 89 -21 100 -25 34 -13 120 -29 141 -26 19 3 26 37 38
186 2 25 6 59 10 75 7 35 15 96 22 175 3 30 10 65 16 77 6 11 9 37 6 57 -2 20
-1 37 3 38 4 2 10 23 14 48 4 25 10 50 14 55 4 6 7 27 7 48 -1 20 2 37 6 37 3
0 5 11 4 25 -2 14 3 37 10 51 8 14 12 30 9 34 -3 5 0 21 7 37 6 15 12 44 14
63 1 19 3 35 4 35 2 0 4 10 5 22 1 12 6 30 10 40 8 19 14 48 18 94 1 15 9 34
16 43 8 9 11 19 8 23 -4 3 -2 14 4 25 10 19 13 31 24 92 3 16 10 37 15 47 6
10 10 27 10 38 0 12 4 21 9 21 5 0 8 8 6 18 -1 9 2 23 8 30 5 7 7 15 3 19 -3
3 1 15 11 25 9 10 13 18 9 18 -4 0 -1 10 6 23 7 12 11 27 10 34 -1 6 2 14 8
18 5 3 10 17 10 30 0 13 5 27 10 30 6 4 8 10 5 14 -2 5 2 17 10 27 8 10 15 24
15 31 0 6 5 24 12 40 6 15 12 30 13 33 18 53 87 194 99 202 6 4 7 8 1 8 -5 0
-4 5 3 12 7 7 12 20 12 29 0 22 -29 33 -36 14 -4 -8 -9 -13 -13 -10 -4 2 -19
-7 -34 -21 -14 -13 -29 -24 -32 -24 -7 0 -86 -66 -141 -117 -19 -18 -36 -32
-38 -30 -10 6 -646 -610 -646 -626 0 -4 -25 -33 -54 -65 -30 -31 -55 -60 -55
-65 -1 -4 -14 -19 -31 -35 -16 -15 -31 -33 -32 -41 -2 -8 -18 -28 -35 -44 -18
-16 -33 -33 -33 -38 0 -9 -44 -59 -52 -59 -3 0 -4 17 -3 38 1 20 -3 48 -9 62
-7 14 -11 66 -10 115 1 50 -1 95 -4 100 -4 6 -7 55 -8 110 0 55 -4 107 -8 117
-4 9 -8 61 -9 115 -1 54 -6 104 -10 111 -5 7 -10 70 -12 140 -9 287 -11 338
-20 362 -5 14 -9 68 -9 120 -1 52 -4 100 -7 105 -3 6 -5 60 -4 120 1 62 -3
116 -9 123 -5 8 -10 35 -11 60 0 73 -25 64 -129 -48 -48 -52 -132 -141 -187
-196 -54 -56 -99 -106 -99 -111 0 -5 -10 -19 -22 -30 -48 -44 -320 -334 -378
-403 -27 -32 -207 -221 -310 -325 -43 -44 -79 -83 -79 -87 -1 -4 -55 -63 -121
-132 -66 -68 -135 -143 -154 -167 -45 -59 -176 -181 -190 -176 -6 2 -19 21
-30 43 -10 21 -25 43 -32 47 -8 5 -12 12 -9 17 3 5 1 11 -5 15 -11 7 -95 126
-95 136 0 4 -11 21 -25 39 -14 18 -25 36 -25 40 0 3 -8 14 -17 23 -9 10 -20
26 -23 37 -3 11 -10 20 -15 20 -4 0 -10 10 -14 23 -3 13 -16 35 -28 49 -13 14
-24 31 -26 38 -5 20 -42 70 -52 70 -5 0 -7 7 -4 15 4 8 1 15 -5 15 -10 0 -45
56 -46 73 0 5 -8 14 -17 21 -10 7 -18 18 -18 25 0 6 -9 20 -20 31 -11 11 -17
20 -14 20 3 0 -3 14 -13 30 -9 17 -21 30 -25 30 -4 0 -8 7 -8 15 0 8 -9 24
-20 35 -11 11 -17 20 -13 20 3 0 -3 10 -15 23 -12 13 -19 26 -16 30 3 3 -3 12
-15 19 -12 7 -21 18 -21 24 0 10 -57 103 -70 114 -3 3 -12 19 -19 37 -7 17
-21 39 -32 49 -10 9 -16 21 -13 25 3 5 -2 12 -10 15 -9 3 -16 10 -16 15 0 8
-30 57 -67 109 -10 14 -18 29 -18 33 0 5 -8 14 -17 21 -10 7 -18 20 -18 28 0
8 -9 23 -20 33 -11 10 -20 26 -20 35 0 9 -9 25 -20 35 -11 10 -20 24 -20 32 0
7 -7 16 -15 19 -8 4 -15 12 -15 19 0 6 -9 20 -20 30 -11 10 -18 20 -15 23 9 9
-17 32 -36 32 -14 0 -19 -7 -19 -25z"/>
<path d="M6550 10167 c-3 -2 -66 -7 -140 -11 -193 -9 -426 -31 -672 -62 -72
-9 -338 -54 -418 -70 -217 -44 -620 -142 -632 -153 -3 -3 396 -257 888 -564
l894 -558 999 623 c677 422 1000 628 1000 640 1 12 -9 19 -31 22 -147 25 -238
38 -398 60 -462 62 -543 68 -1035 73 -248 2 -452 2 -455 0z"/>
<path d="M2227 8753 c-289 -348 -579 -810 -763 -1215 -268 -592 -426 -1195
-479 -1838 -15 -177 -20 -669 -9 -790 l7 -65 244 -48 c135 -26 246 -47 248
-45 4 5 1457 1662 1477 1684 19 22 18 28 -222 1130 -133 610 -246 1126 -251
1147 -9 34 -17 41 -89 77 -44 22 -84 40 -89 40 -5 0 -38 -35 -74 -77z"/>
<path d="M10548 8789 c-70 -35 -78 -43 -87 -76 -5 -21 -118 -537 -251 -1147
-240 -1101 -241 -1108 -222 -1130 21 -23 1474 -1679 1478 -1684 2 -3 370 68
442 85 19 4 22 1 24 -23 0 -16 4 9 9 56 13 150 10 645 -6 830 -84 1009 -434
1957 -1025 2771 -83 114 -264 344 -278 353 -4 2 -42 -14 -84 -35z"/>
<path d="M6175 7528 c-159 -122 -533 -406 -830 -632 -297 -225 -607 -462 -690
-524 -82 -63 -180 -138 -217 -166 -38 -28 -68 -57 -67 -66 0 -8 179 -548 398
-1200 l398 -1185 1303 0 1303 0 398 1185 c219 652 398 1192 398 1200 1 9 -29
38 -66 66 -38 28 -135 103 -218 166 -82 62 -449 341 -815 619 -366 278 -739
563 -830 632 -91 69 -167 126 -170 126 -3 0 -135 -99 -295 -221z"/>
<path d="M11922 4700 c0 -19 2 -27 5 -17 2 9 2 25 0 35 -3 9 -5 1 -5 -18z"/>
<path d="M11912 4610 c0 -14 2 -19 5 -12 2 6 2 18 0 25 -3 6 -5 1 -5 -13z"/>
<path d="M11901 4534 c0 -11 3 -14 6 -6 3 7 2 16 -1 19 -3 4 -6 -2 -5 -13z"/>
<path d="M11891 4454 c0 -11 3 -14 6 -6 3 7 2 16 -1 19 -3 4 -6 -2 -5 -13z"/>
<path d="M11882 4390 c0 -14 2 -19 5 -12 2 6 2 18 0 25 -3 6 -5 1 -5 -13z"/>
<path d="M2032 2504 l-183 -246 101 -145 c329 -472 747 -906 1205 -1250 477
-359 1014 -643 1559 -823 111 -37 131 -41 140 -28 6 8 91 121 190 251 l178
236 -324 1123 -324 1123 -1179 2 -1180 2 -183 -245z"/>
<path d="M8367 2743 c-3 -5 -150 -511 -327 -1126 l-322 -1118 187 -248 186
-249 142 48 c1077 363 2035 1077 2708 2020 85 119 179 265 179 277 0 5 -89 97
-198 206 l-197 197 -1177 0 c-647 0 -1179 -3 -1181 -7z"/>
</g>
</svg>
